<!--?xml version="1.0" encoding="utf-8"?-->
<!-- Generator: Adobe Illustrator 15.1.0, SVG Export Plug-In . SVG Version: 6.00 Build 0)  -->

<svg version="1.1" id="_x32_" xmlns="http://www.w3.org/2000/svg" xmlns:xlink="http://www.w3.org/1999/xlink" x="0px" y="0px" width="512px" height="512px" viewBox="0 0 512 512" style="width: 16px; height: 16px; opacity: 1;" xml:space="preserve">
<style type="text/css">

	.st0{fill:#4B4B4B;}

</style>
<g>
	<path class="st0" d="M354.469,68.063c0-15.719-12.813-28.5-28.5-28.5H186.063c-15.719,0-28.5,12.781-28.5,28.5v55.422h-44.094
		v348.953h285.094V123.484h-44.094V68.063z M319.563,123.484H192.469v-49h127.094V123.484z" style="fill: rgb(255, 255, 255);"></path>
	<path class="st0" d="M0,158.391v279.141c0,19.266,15.625,34.906,34.938,34.906h43.625V123.484H34.938
		C15.625,123.484,0,139.094,0,158.391z" style="fill: rgb(255, 255, 255);"></path>
	<path class="st0" d="M477.094,123.484h-43.625v348.953h43.625c19.281,0,34.906-15.641,34.906-34.906V158.391
		C512,139.094,496.375,123.484,477.094,123.484z" style="fill: rgb(255, 255, 255);"></path>
</g>
</svg>
